<?xml version="1.0" encoding="utf-8"?><svg viewBox="0 0 866 469" xmlns="http://www.w3.org/2000/svg" xmlns:xlink="http://www.w3.org/1999/xlink"><style>:root>svg{display:none}:root>svg:target{display:block}</style><svg fill="none" viewBox="0 0 67 66" id="announcement--appearance-photo-add" xmlns="http://www.w3.org/2000/svg"><path d="M55.234 13.75h-7.123l-7.457-7.444a2.745 2.745 0 00-1.948-.806h-11.02a2.748 2.748 0 00-1.947.806l-7.457 7.444h-7.124c-3.039 0-5.51 2.467-5.51 5.5V49.5c0 3.033 2.471 5.5 5.51 5.5h44.076c3.04 0 5.51-2.467 5.51-5.5V19.25c0-3.033-2.47-5.5-5.51-5.5zm-22.038 33c-7.465 0-13.774-6.297-13.774-13.75 0-7.455 6.309-13.75 13.774-13.75 7.466 0 13.774 6.295 13.774 13.75 0 7.453-6.308 13.75-13.774 13.75z" fill="url(#aapaint0_radial_455_4900)"/><path d="M35.953 27.5a2.754 2.754 0 00-2.755-2.75 2.754 2.754 0 00-2.755 2.75 2.754 2.754 0 01-2.755 2.75A2.754 2.754 0 0024.934 33a2.754 2.754 0 002.754 2.75 2.754 2.754 0 012.755 2.75 2.754 2.754 0 002.755 2.75 2.754 2.754 0 002.755-2.75 2.754 2.754 0 012.755-2.75A2.754 2.754 0 0041.462 33a2.754 2.754 0 00-2.755-2.75 2.754 2.754 0 01-2.754-2.75z" fill="url(#aapaint1_radial_455_4900)"/><defs><radialGradient id="aapaint0_radial_455_4900" cx="0" cy="0" r="1" gradientUnits="userSpaceOnUse" gradientTransform="matrix(56.5847 56.75562 -74.56204 74.3375 4.16 3.23)"><stop stop-color="#B1B9DB"/><stop offset=".569" stop-color="#939CC5"/><stop offset="1" stop-color="#B3B9D6"/></radialGradient><radialGradient id="aapaint1_radial_455_4900" cx="0" cy="0" r="1" gradientUnits="userSpaceOnUse" gradientTransform="matrix(16.9754 18.91853 -24.70885 22.171 24.487 23.993)"><stop stop-color="#B1B9DB"/><stop offset=".569" stop-color="#939CC5"/><stop offset="1" stop-color="#B3B9D6"/></radialGradient></defs></svg><svg fill="none" viewBox="0 0 26 26" id="announcement--appearance-photo-delete" xmlns="http://www.w3.org/2000/svg"><path d="M6.297 6.478l13.117 13.094M6.715 19.342L19.012 7.066" stroke="#fff" stroke-width="2.787" stroke-linecap="round" stroke-linejoin="round"/></svg><svg fill="none" viewBox="0 0 11 18" id="announcement--arrow-back" xmlns="http://www.w3.org/2000/svg"><path d="M9 16L2 9l7-7" stroke="#E3E9FF" stroke-width="2.3" stroke-linecap="round" stroke-linejoin="round"/></svg><svg fill="none" viewBox="0 0 17 9" id="announcement--arrow-dropdown" xmlns="http://www.w3.org/2000/svg"><path d="M2 2l6.5 5L15 2" stroke="#20242C" stroke-width="2.2" stroke-linecap="round" stroke-linejoin="round"/></svg><svg fill="none" viewBox="0 0 18 24" id="announcement--arrow-up" xmlns="http://www.w3.org/2000/svg"><path d="M9 22V2M2 9l7-7 7 7" stroke="#fff" stroke-width="3" stroke-linecap="round" stroke-linejoin="round"/></svg><svg fill="none" viewBox="0 0 25 24" id="announcement--category-1" xmlns="http://www.w3.org/2000/svg"><path d="M2.788 18.65c-.41 0-.751-.34-.751-.75v-5.7a9.94 9.94 0 012.842-7.19c1.882-1.91 4.404-2.96 7.117-2.96 5.544 0 10.058 4.51 10.058 10.05v5.7c0 .41-.34.75-.75.75s-.751-.34-.751-.75v-5.7c0-4.71-3.833-8.55-8.557-8.55-2.312 0-4.454.89-6.046 2.51-1.601 1.63-2.452 3.8-2.412 6.12v5.71c0 .42-.33.76-.75.76z" fill="#fff"/><path d="M5.979 12.45h-.13a3.817 3.817 0 00-3.814 3.81v1.88c0 2.1 1.712 3.81 3.813 3.81h.13a3.817 3.817 0 003.814-3.81v-1.88c0-2.1-1.712-3.81-3.813-3.81zM18.24 12.45h-.13a3.817 3.817 0 00-3.813 3.81v1.88c0 2.1 1.711 3.81 3.813 3.81h.13a3.817 3.817 0 003.814-3.81v-1.88c0-2.1-1.712-3.81-3.814-3.81z" fill="#fff"/></svg><svg fill="none" viewBox="0 0 24 24" id="announcement--category-2" xmlns="http://www.w3.org/2000/svg"><path d="M18.709 9.49c-.1 0-.2-.02-.3-.06a.76.76 0 01-.39-.99c.19-.43.08-1.06-.27-1.58-.35-.53-.88-.89-1.36-.86-.44 0-.75-.33-.76-.74 0-.42.33-.75.74-.76 1.03-.02 2 .57 2.63 1.52.64.96.79 2.11.4 3.01-.12.29-.4.46-.69.46z" fill="#E3E9FF"/><path d="M21.82 10.48c-.07 0-.13-.01-.2-.03a.745.745 0 01-.52-.92c.38-1.36.06-2.98-.85-4.34-.91-1.36-2.29-2.27-3.7-2.44a.744.744 0 01-.65-.83c.05-.41.43-.71.83-.65 1.83.22 3.61 1.38 4.76 3.1 1.15 1.72 1.54 3.8 1.05 5.58-.09.31-.39.53-.72.53zM17.119 11.78c0 .3-.25.55-.55.55H3.429c-.3 0-.55-.25-.55-.55 0-.3.25-.55.55-.55h.74l.28-1.32c.26-1.28.81-2.45 2.99-2.45h5.13c2.18 0 2.72 1.18 2.99 2.45l.28 1.32h.74c.29 0 .54.25.54.55zM17.43 15.91c-.11-1.2-.43-2.49-2.77-2.49H5.34c-2.34 0-2.66 1.29-2.77 2.49l-.41 4.45c-.05.55.13 1.11.51 1.53.39.42.93.66 1.52.66h1.37c1.18 0 1.41-.68 1.56-1.12l.15-.44c.17-.5.21-.63.87-.63h3.74c.66 0 .68.07.87.63l.15.44c.15.45.37 1.12 1.56 1.12h1.37c.58 0 1.13-.24 1.52-.66.38-.42.56-.97.51-1.53l-.43-4.45zm-9.62 1.52H5.62c-.3 0-.55-.25-.55-.55 0-.3.25-.55.55-.55h2.19c.3 0 .55.25.55.55 0 .3-.25.55-.55.55zm6.57 0h-2.19c-.3 0-.55-.25-.55-.55 0-.3.25-.55.55-.55h2.19c.3 0 .55.25.55.55 0 .3-.25.55-.55.55z" fill="#E3E9FF"/></svg><svg fill="none" viewBox="0 0 24 24" id="announcement--category-3" xmlns="http://www.w3.org/2000/svg"><path d="M11.322 3h-6.23c-1.99 0-2.99 1.01-2.99 3.02V22h5.4v-3.75a.749.749 0 111.5 0V22h5.3V6.02c0-2.01-.99-3.02-2.98-3.02zm-.57 9.75h-4.95c-.41 0-.75-.34-.75-.75s.34-.75.75-.75h4.95c.41 0 .75.34.75.75s-.34.75-.75.75zm0-3.75h-4.95c-.41 0-.75-.34-.75-.75s.34-.75.75-.75h4.95c.41 0 .75.34.75.75s-.34.75-.75.75z" fill="#E3E9FF"/><path d="M23 21.25h-2.27v-3c.95-.31 1.64-1.2 1.64-2.25v-2c0-1.31-1.07-2.38-2.38-2.38-1.31 0-2.38 1.07-2.38 2.38v2c0 1.04.68 1.92 1.61 2.24v3.01H1c-.41 0-.75.34-.75.75s.34.75.75.75h18.93c.02 0 .03.01.05.01.02 0 .03-.01.05-.01H23c.41 0 .75-.34.75-.75s-.34-.75-.75-.75z" fill="#E3E9FF"/></svg><svg fill="none" viewBox="0 0 24 24" id="announcement--category-4" xmlns="http://www.w3.org/2000/svg"><path d="M21.969 18v1c0 1.65 0 3-3 3h-14c-3 0-3-1.35-3-3v-1c0-.55.45-1 1-1h18c.55 0 1 .45 1 1zM14.41 5.18c.05-.2.08-.39.09-.6.03-1.16-.68-2.18-1.8-2.48a2.506 2.506 0 00-3.11 3.08A8.001 8.001 0 003.27 13v1.5c0 .55.45 1 1 1h15.45c.55 0 1-.45 1-1V13c0-3.84-2.7-7.04-6.31-7.82zm.59 6.57H9c-.41 0-.75-.34-.75-.75s.34-.75.75-.75h6c.41 0 .75.34.75.75s-.34.75-.75.75z" fill="#E3E9FF"/></svg><svg fill="none" viewBox="0 0 24 24" id="announcement--category-5" xmlns="http://www.w3.org/2000/svg"><path d="M21.091 6.98c-.85-.94-2.27-1.41-4.33-1.41h-.24v-.04c0-1.68 0-3.76-3.76-3.76h-1.52c-3.76 0-3.76 2.09-3.76 3.76v.05h-.24c-2.07 0-3.48.47-4.33 1.41-.99 1.1-.96 2.58-.86 3.59l.01.07.077.813c.015.15.095.285.221.367.24.157.641.416.882.55.14.09.29.17.44.25 1.71.94 3.59 1.57 5.5 1.88.09.94.5 2.04 2.69 2.04s2.62-1.09 2.69-2.06c2.04-.33 4.01-1.04 5.79-2.08.06-.03.1-.06.15-.09.397-.225.808-.501 1.183-.772a.493.493 0 00.201-.346l.016-.143.05-.47c.01-.06.01-.11.02-.18.08-1.01.06-2.39-.88-3.43zm-8 6.85c0 1.06 0 1.22-1.23 1.22s-1.23-.19-1.23-1.21v-1.26h2.46v1.25zm-4.18-8.26v-.04c0-1.7 0-2.33 2.33-2.33h1.52c2.33 0 2.33.64 2.33 2.33v.05h-6.18v-.01z" fill="#E3E9FF"/><path d="M20.873 13.734a.509.509 0 01.726.502l-.36 3.954c-.21 2-1.03 4.04-5.43 4.04H8.19c-4.4 0-5.22-2.04-5.43-4.03l-.34-3.748a.508.508 0 01.716-.505c1.14.515 3.242 1.43 4.541 1.77a.57.57 0 01.37.314c.607 1.299 1.923 1.99 3.824 1.99 1.882 0 3.215-.718 3.824-2.02a.572.572 0 01.37-.314c1.379-.363 3.618-1.385 4.81-1.953z" fill="#E3E9FF"/></svg><svg fill="none" viewBox="0 0 18 13" id="announcement--check" xmlns="http://www.w3.org/2000/svg"><path d="M2 6.477L6.442 11 16 2" stroke="#4067F0" stroke-width="3" stroke-linecap="round" stroke-linejoin="round"/></svg><svg fill="none" viewBox="0 0 19 15" id="announcement--check-g" xmlns="http://www.w3.org/2000/svg"><path d="M2 8.875L6.09 13 17 2" stroke="#292D32" stroke-width="2.2" stroke-linecap="round" stroke-linejoin="round"/></svg><svg fill="none" viewBox="0 0 19 15" id="announcement--dropdown-check" xmlns="http://www.w3.org/2000/svg"><path d="M2 8.875L6.09 13 17 2" stroke="#4067F0" stroke-width="2.2" stroke-linecap="round" stroke-linejoin="round"/></svg><svg fill="none" viewBox="0 0 24 24" id="announcement--edit-icon" xmlns="http://www.w3.org/2000/svg"><path d="M12 20h9M16.5 3.5a2.121 2.121 0 113 3L7 19l-4 1 1-4L16.5 3.5z" stroke="#fff" stroke-width="2" stroke-linecap="round" stroke-linejoin="round"/></svg><svg fill="none" viewBox="0 0 18 18" id="announcement--empty" xmlns="http://www.w3.org/2000/svg"><path d="M2 2l13.815 13.815M2 15.815L15.815 2" stroke="#C7CCE2" stroke-width="3" stroke-linecap="round" stroke-linejoin="round"/></svg><svg fill="none" viewBox="0 0 8 14" id="announcement--link-arrow" xmlns="http://www.w3.org/2000/svg"><path d="M1 1l6 6-6 6" stroke="#4067F0" stroke-width="2" stroke-linecap="round" stroke-linejoin="round"/></svg><svg fill="none" viewBox="0 0 70 96" id="announcement--map-mark" xmlns="http://www.w3.org/2000/svg"><path d="M70 35.95c0 17.677-13.294 32.329-29.674 34.974-.76.425-3.043 2.685-5.326 8.71-3.804-8.285-4.565-8.285-5.326-8.71C13.294 68.279 0 53.627 0 35.95 0 16.399 16.09.55 35 .55s35 15.849 35 35.4z" fill="#2A83E8"/><path d="M70 35.95c0 17.677-13.294 32.329-29.674 34.974-.76.425-3.043 2.685-5.326 8.71-3.804-8.285-4.565-8.285-5.326-8.71C13.294 68.279 0 53.627 0 35.95 0 16.399 16.09.55 35 .55s35 15.849 35 35.4z" fill="url(#aqpaint0_linear_455_4878)"/><path d="M35 44.234c5.464 0 9.892-4.384 9.892-9.791 0-5.408-4.428-9.792-9.891-9.792s-9.892 4.384-9.892 9.792c0 5.407 4.429 9.791 9.892 9.791zM35.255 95.45c3.362 0 6.087-2.697 6.087-6.025 0-3.328-2.725-6.026-6.087-6.026-3.362 0-6.087 2.698-6.087 6.026s2.725 6.025 6.087 6.025z" fill="#fff"/><path d="M35.126 92.438c1.68 0 3.043-1.35 3.043-3.013 0-1.664-1.363-3.013-3.043-3.013-1.681 0-3.044 1.349-3.044 3.013s1.363 3.013 3.044 3.013z" fill="#375DE2"/><defs><linearGradient id="aqpaint0_linear_455_4878" x1="50" y1="101.5" x2="86.436" y2="29.425" gradientUnits="userSpaceOnUse"><stop stop-color="#4067F0"/><stop offset="1" stop-color="#375DE2"/></linearGradient></defs></svg><svg fill="none" viewBox="0 0 24 24" id="announcement--save-icon" xmlns="http://www.w3.org/2000/svg"><path d="M4 3h16a2 2 0 012 2v6a10 10 0 01-20 0V5a2 2 0 012-2v0z" stroke="#E3E9FF" stroke-width="2" stroke-linecap="round" stroke-linejoin="round"/><path d="M8 10l4 4 4-4" stroke="#E3E9FF" stroke-width="2" stroke-linecap="round" stroke-linejoin="round"/></svg><svg fill="none" viewBox="0 0 23 22" id="announcement--search" xmlns="http://www.w3.org/2000/svg"><path d="M10.725 18.742c4.922 0 8.913-3.971 8.913-8.87 0-4.9-3.99-8.872-8.913-8.872-4.922 0-8.912 3.972-8.912 8.871 0 4.9 3.99 8.871 8.912 8.871zM21.517 20.61l-1.876-1.868" stroke="#4067F0" stroke-width="2" stroke-linecap="round" stroke-linejoin="round"/></svg><svg fill="none" viewBox="0 0 18 18" id="announcement--stage-1" xmlns="http://www.w3.org/2000/svg"><path d="M15 1.5H3A1.5 1.5 0 001.5 3v3A1.5 1.5 0 003 7.5h12A1.5 1.5 0 0016.5 6V3A1.5 1.5 0 0015 1.5zM15 10.5H3A1.5 1.5 0 001.5 12v3A1.5 1.5 0 003 16.5h12a1.5 1.5 0 001.5-1.5v-3a1.5 1.5 0 00-1.5-1.5zM4.5 4.5h.008M4.5 13.5h.008" stroke="#fff" stroke-width="2" stroke-linecap="round" stroke-linejoin="round"/></svg><svg fill="none" viewBox="0 0 19 19" id="announcement--stage-2" xmlns="http://www.w3.org/2000/svg"><path d="M7.124 17.416h4.75c3.958 0 5.541-1.583 5.541-5.541v-4.75c0-3.959-1.583-5.542-5.541-5.542h-4.75c-3.959 0-5.542 1.583-5.542 5.542v4.75c0 3.958 1.583 5.541 5.542 5.541z" fill="#fff" stroke="#fff" stroke-width="1.5" stroke-linecap="round" stroke-linejoin="round"/><path d="M9.793 7.03h4.156M5.05 7.03l.595.594 1.78-1.782M9.793 12.572h4.156M5.05 12.572l.595.594 1.78-1.782" stroke="#4067F0" stroke-width="1.5" stroke-linecap="round" stroke-linejoin="round"/></svg><svg fill="none" viewBox="0 0 21 21" id="announcement--stage-3" xmlns="http://www.w3.org/2000/svg"><path d="M2.257 16.634l-.018.017a5.414 5.414 0 01-.446-1.75c.061.64.227 1.217.464 1.733zM7.875 9.082a2.083 2.083 0 100-4.165 2.083 2.083 0 000 4.165z" fill="#fff"/><path d="M14.166 1.75H6.834c-3.185 0-5.084 1.899-5.084 5.084v7.332c0 .954.166 1.785.49 2.485.752 1.663 2.362 2.599 4.594 2.599h7.332c3.185 0 5.084-1.899 5.084-5.084V6.834c0-3.185-1.899-5.084-5.084-5.084zm3.658 9.188c-.683-.587-1.785-.587-2.468 0l-3.64 3.123c-.682.587-1.785.587-2.467 0l-.298-.245c-.621-.542-1.61-.595-2.31-.122L3.37 15.89a4.666 4.666 0 01-.307-1.724V6.834c0-2.468 1.304-3.771 3.772-3.771h7.332c2.468 0 3.771 1.303 3.771 3.77v4.2l-.113-.095z" fill="#fff"/></svg><svg fill="none" viewBox="0 0 18 18" id="announcement--stage-4" xmlns="http://www.w3.org/2000/svg"><path d="M15.465 6.338C14.677 2.872 11.655 1.312 9 1.312h-.008c-2.647 0-5.677 1.553-6.465 5.018-.877 3.87 1.493 7.147 3.638 9.21.795.765 1.815 1.71 2.835 1.71s2.04-.945 2.827-1.71c2.145-2.063 4.515-5.332 3.638-9.202zM9 10.095a2.362 2.362 0 110-4.724 2.362 2.362 0 010 4.724z" fill="#fff"/></svg><svg fill="none" viewBox="0 0 19 19" id="announcement--stage-5" xmlns="http://www.w3.org/2000/svg"><path d="M3.165 3.167h12.667c.87 0 1.583.712 1.583 1.583v9.5c0 .871-.712 1.584-1.583 1.584H3.165c-.87 0-1.583-.713-1.583-1.584v-9.5c0-.87.713-1.583 1.583-1.583z" stroke="#C0CDFA" stroke-width="2" stroke-linecap="round" stroke-linejoin="round"/><path d="M17.415 4.75L9.5 10.292 1.582 4.75" stroke="#C0CDFA" stroke-width="2" stroke-linecap="round" stroke-linejoin="round"/></svg><svg fill="none" viewBox="0 0 27 27" id="announcement--stages-banner" xmlns="http://www.w3.org/2000/svg"><path d="M16.144 2.25h-5.287c-1.17 0-2.127.945-2.127 2.115v1.058c0 1.17.945 2.114 2.115 2.114h5.3c1.17 0 2.114-.944 2.114-2.114V4.365a2.105 2.105 0 00-2.115-2.115z" fill="#5071E6"/><path d="M19.393 5.422a3.26 3.26 0 01-3.251 3.252h-5.288a3.26 3.26 0 01-3.251-3.252c0-.63-.675-1.023-1.238-.73A5.03 5.03 0 003.7 9.134V19.72a5.041 5.041 0 005.029 5.029h9.54a5.041 5.041 0 005.029-5.029V9.135A5.03 5.03 0 0020.63 4.69c-.563-.292-1.238.101-1.238.731z" fill="#5071E6"/><path d="M13.5 12.875v5.25M10.875 15.5h5.25" stroke="#fff" stroke-width="2" stroke-linecap="round" stroke-linejoin="round"/></svg><svg viewBox="0 0 11 17" fill="none" id="arrow-black" xmlns="http://www.w3.org/2000/svg"><path d="M9.328 1.72L2 8.526l7.328 6.804" stroke="#20242C" stroke-width="2.2" stroke-linecap="round" stroke-linejoin="round"/></svg><svg fill="none" viewBox="0 0 8 14" id="arrow-blue" xmlns="http://www.w3.org/2000/svg"><path d="M1 1l6 6-6 6" stroke="#4067F0" stroke-width="2" stroke-linecap="round" stroke-linejoin="round"/></svg><svg fill="none" viewBox="0 0 12 16" id="arrow-cost" xmlns="http://www.w3.org/2000/svg"><path d="M10 6L6 2 2 6M6 14V3" stroke="#fff" stroke-width="2.2" stroke-miterlimit="10" stroke-linecap="round" stroke-linejoin="round"/></svg><svg viewBox="0 0 8 14" fill="none" id="arrow-white" xmlns="http://www.w3.org/2000/svg"><path d="M1 1l6 6-6 6" stroke="#fff" stroke-width="2" stroke-linecap="round" stroke-linejoin="round"/></svg><svg fill="none" viewBox="0 0 444 2" id="boundary" xmlns="http://www.w3.org/2000/svg"><rect x="162" width="2" height="4" rx="1" transform="rotate(90 162 0)" fill="#D8DCE7"/><rect x="215" width="2" height="4" rx="1" transform="rotate(90 215 0)" fill="#D8DCE7"/><rect x="144" width="2" height="4" rx="1" transform="rotate(90 144 0)" fill="#D8DCE7"/><rect x="197" width="2" height="4" rx="1" transform="rotate(90 197 0)" fill="#D8DCE7"/><rect x="126" width="2" height="4" rx="1" transform="rotate(90 126 0)" fill="#D8DCE7"/><rect x="179" width="2" height="4" rx="1" transform="rotate(90 179 0)" fill="#D8DCE7"/><rect x="109" width="2" height="4" rx="1" transform="rotate(90 109 0)" fill="#D8DCE7"/><rect x="91" width="2" height="4" rx="1" transform="rotate(90 91 0)" fill="#D8DCE7"/><rect x="74" width="2" height="4" rx="1" transform="rotate(90 74 0)" fill="#D8DCE7"/><rect x="57" width="2" height="4" rx="1" transform="rotate(90 57 0)" fill="#D8DCE7"/><rect x="39" width="2" height="4" rx="1" transform="rotate(90 39 0)" fill="#D8DCE7"/><rect x="21" width="2" height="4" rx="1" transform="rotate(90 21 0)" fill="#D8DCE7"/><rect x="4" width="2" height="4" rx="1" transform="rotate(90 4 0)" fill="#D8DCE7"/><rect x="391" width="2" height="4" rx="1" transform="rotate(90 391 0)" fill="#D8DCE7"/><rect x="444" width="2" height="4" rx="1" transform="rotate(90 444 0)" fill="#D8DCE7"/><rect x="373" width="2" height="4" rx="1" transform="rotate(90 373 0)" fill="#D8DCE7"/><rect x="426" width="2" height="4" rx="1" transform="rotate(90 426 0)" fill="#D8DCE7"/><rect x="355" width="2" height="4" rx="1" transform="rotate(90 355 0)" fill="#D8DCE7"/><rect x="408" width="2" height="4" rx="1" transform="rotate(90 408 0)" fill="#D8DCE7"/><rect x="338" width="2" height="4" rx="1" transform="rotate(90 338 0)" fill="#D8DCE7"/><rect x="320" width="2" height="4" rx="1" transform="rotate(90 320 0)" fill="#D8DCE7"/><rect x="303" width="2" height="4" rx="1" transform="rotate(90 303 0)" fill="#D8DCE7"/><rect x="286" width="2" height="4" rx="1" transform="rotate(90 286 0)" fill="#D8DCE7"/><rect x="268" width="2" height="4" rx="1" transform="rotate(90 268 0)" fill="#D8DCE7"/><rect x="250" width="2" height="4" rx="1" transform="rotate(90 250 0)" fill="#D8DCE7"/><rect x="233" width="2" height="4" rx="1" transform="rotate(90 233 0)" fill="#D8DCE7"/></svg><svg fill="none" viewBox="0 0 352 469" id="cart-active" xmlns="http://www.w3.org/2000/svg"><path d="M322 467.9c15.961 0 28.9-12.939 28.9-28.9V260.347a42.525 42.525 0 00-18.936-35.382c-4.97-3.313-4.97-10.617 0-13.93a42.525 42.525 0 0018.936-35.382V30c0-15.961-12.939-28.9-28.9-28.9H30C14.039 1.1 1.1 14.039 1.1 30v143.208c0 15.39 8.695 29.46 22.461 36.343 6.963 3.481 6.963 13.417 0 16.898A40.633 40.633 0 001.1 262.792V439c0 15.961 12.939 28.9 28.9 28.9h292z" fill="#fff" stroke="#4067F0" stroke-width="2.2"/></svg><svg fill="none" viewBox="0 0 858 264" id="cart-active-justify" xmlns="http://www.w3.org/2000/svg"><path d="M856.4 30c0-15.961-12.939-28.9-28.9-28.9H334.985a38.9 38.9 0 00-27.989 11.885l-6.117 6.338a6.1 6.1 0 01-8.779 0l-6.117-6.338A38.901 38.901 0 00257.994 1.1H30C14.039 1.1 1.1 14.039 1.1 30v204c0 15.961 12.939 28.9 28.9 28.9h224.554a38.898 38.898 0 0031.51-16.09l5.484-7.576c2.436-3.364 7.447-3.364 9.883 0l5.484 7.576a38.898 38.898 0 0031.51 16.09H827.5c15.961 0 28.9-12.939 28.9-28.9V30z" fill="#fff" stroke="#4067F0" stroke-width="2.2"/></svg><svg fill="none" viewBox="0 0 388 405" id="cart-active-justify-mob" xmlns="http://www.w3.org/2000/svg"><path d="M371.543 403.686c8.231 0 14.903-6.672 14.903-14.902V224.272a22.033 22.033 0 00-9.812-18.333c-2.734-1.823-2.734-5.842 0-7.665a22.033 22.033 0 009.812-18.333V15.703C386.446 7.472 379.774.8 371.543.8H15.703C7.473.8.8 7.472.8 15.703v164.571c0 7.12 3.666 13.738 9.701 17.516 3.188 1.995 3.188 6.638 0 8.633a20.665 20.665 0 00-9.7 17.516v164.845c0 8.23 6.671 14.902 14.902 14.902h355.84z" fill="#fff" stroke="#4067F0" stroke-width="1.6"/></svg><svg fill="none" viewBox="0 0 184 290" id="cart-active-mob" xmlns="http://www.w3.org/2000/svg"><path d="M168.297 289.2c8.231 0 14.903-6.672 14.903-14.903V156.013a21.996 21.996 0 00-9.798-18.304c-2.731-1.82-2.731-5.834 0-7.654a21.995 21.995 0 009.798-18.303v-96.05C183.2 7.473 176.528.8 168.297.8H15.703C7.473.8.8 7.472.8 15.703v94.77a21.008 21.008 0 0011.616 18.792c3.805 1.902 3.805 7.332 0 9.234A21.01 21.01 0 00.8 157.291v117.006c0 8.231 6.672 14.903 14.903 14.903h152.594z" fill="#fff" stroke="#4067F0" stroke-width="1.6"/></svg><svg viewBox="0 0 17 16" fill="none" id="categories" xmlns="http://www.w3.org/2000/svg"><path d="M12.882 5.92a2.46 2.46 0 100-4.92 2.46 2.46 0 000 4.92zM3.96 5.92a2.46 2.46 0 100-4.92 2.46 2.46 0 000 4.92zM12.882 14.84a2.46 2.46 0 100-4.92 2.46 2.46 0 000 4.92zM3.96 14.84a2.46 2.46 0 100-4.92 2.46 2.46 0 000 4.92z" stroke="#BECDFF" stroke-width="2" stroke-miterlimit="10" stroke-linecap="round" stroke-linejoin="round"/></svg><svg viewBox="0 0 24 24" fill="none" id="categories-mob" xmlns="http://www.w3.org/2000/svg"><path d="M22 6.5h-6M6 6.5H2M10 10a3.5 3.5 0 100-7 3.5 3.5 0 000 7zM22 17.5h-4M8 17.5H2M14 21a3.5 3.5 0 100-7 3.5 3.5 0 000 7z" stroke="#fff" stroke-width="2" stroke-miterlimit="10" stroke-linecap="round" stroke-linejoin="round"/></svg><svg fill="none" viewBox="0 0 19 15" id="check-black" xmlns="http://www.w3.org/2000/svg"><path d="M2 8.875L6.09 13 17 2" stroke="#292D32" stroke-width="2.2" stroke-linecap="round" stroke-linejoin="round"/></svg><svg fill="none" viewBox="0 0 15 11" id="check-blue" xmlns="http://www.w3.org/2000/svg"><path d="M2 5.482L5.49 9 13 2" stroke="#5071E6" stroke-width="3" stroke-linecap="round" stroke-linejoin="round"/></svg><svg fill="none" viewBox="0 0 249 38" id="credit-logo" xmlns="http://www.w3.org/2000/svg"><path d="M111.066 36.485c6.828 0 9.949-2.809 9.949-8.934V14.793h-6.984v12.758c0 2.419-.936 3.511-2.965 3.511-1.99 0-2.926-1.092-2.926-3.511V14.793h-6.984v12.758c0 6.125 3.121 8.934 9.91 8.934z" fill="#3278FF"/><path d="M9.536 20.246h0l.067.03c1.708.768 3.534 1.588 4.933 2.843 1.432 1.286 2.414 3.024 2.414 5.602 0 2.486-.884 4.522-2.474 5.934-1.586 1.41-3.85 2.174-6.57 2.174-2.3 0-4.91-.554-7.008-1.425l-.18-.075.017-.194.234-2.575.036-.392.35.178c2.192 1.116 4.491 1.688 6.512 1.688 1.806 0 3.272-.494 4.28-1.342 1.005-.844 1.579-2.055 1.579-3.542v-.117c0-1.684-.697-2.843-1.775-3.762-1.092-.932-2.567-1.61-4.116-2.316l1.7-2.709zm0 0c-1.492-.667-2.87-1.287-3.88-2.118-.995-.818-1.62-1.83-1.62-3.296v-.117c0-1.348.533-2.441 1.459-3.203.931-.767 2.28-1.213 3.932-1.213 1.707 0 3.658.494 5.781 1.459l.352.16.024-.386.156-2.536.012-.19-.177-.073c-1.944-.793-4.28-1.229-6.265-1.229-2.528 0-4.653.737-6.15 2.061-1.5 1.328-2.348 3.227-2.348 5.501 0 2.346.916 3.947 2.264 5.149 1.332 1.186 3.086 1.982 4.753 2.738l.005.002 1.702-2.709zM30.75 36.312l.193-.055V33.5l-.35.118c-.67.223-1.539.337-2.218.337-.881 0-1.497-.264-1.901-.756-.413-.503-.642-1.29-.642-2.411V17.517h5.111V14.84H25.833V9.307l-.295.032-2.536.273-.238.026v5.201h-3.433v2.678h3.433V31.18c0 1.826.386 3.228 1.223 4.175.842.954 2.098 1.397 3.725 1.397.922 0 1.922-.12 3.039-.439zm19.455-.947l.178-.076-.017-.193-.195-2.223-.034-.381-.345.163c-2.038.962-4.106 1.457-5.973 1.457-2.188 0-3.863-.654-5.01-1.94-1.112-1.247-1.76-3.125-1.855-5.681h14.271v-.93c0-3.617-.696-6.413-2.095-8.312-1.409-1.912-3.504-2.878-6.208-2.878-2.86 0-5.156 1.053-6.729 3.026-1.566 1.964-2.394 4.81-2.394 8.36 0 3.547.828 6.303 2.486 8.174 1.664 1.876 4.125 2.82 7.3 2.82 2.223 0 4.482-.476 6.62-1.386zm9.02.918h.266V23.025c0-1.797.566-3.268 1.536-4.289.968-1.019 2.358-1.61 4.05-1.61 1.523 0 2.65.469 3.403 1.333.757.871 1.168 2.184 1.168 3.942v13.882h3.108V22.127c0-2.457-.595-4.402-1.769-5.735-1.179-1.338-2.907-2.021-5.091-2.021-2.78 0-5.099 1.109-6.484 3.056v-2.588h-3.029V36.283h2.841zM92.668 6.756v10.962c-.605-.985-1.362-1.759-2.267-2.313-1.132-.694-2.48-1.034-4.021-1.034-2.708 0-4.849 1.017-6.304 2.96-1.447 1.93-2.195 4.745-2.195 8.308 0 3.504.728 6.28 2.135 8.185 1.416 1.918 3.498 2.927 6.13 2.927 1.663 0 3.101-.401 4.298-1.2.96-.642 1.753-1.532 2.38-2.655v3.387h2.912V6.49H92.67v.266zM48.031 24.007H37c.147-2.288.734-4.034 1.682-5.214.978-1.219 2.362-1.861 4.123-1.861 1.682 0 2.933.602 3.793 1.792.84 1.16 1.328 2.91 1.432 5.283zm38.7 10.066c-1.83 0-3.238-.723-4.2-2.1-.97-1.391-1.502-3.475-1.502-6.217v-.351c0-2.72.55-4.814 1.55-6.22.991-1.393 2.44-2.136 4.309-2.136 1.793 0 3.225.715 4.216 2.016.998 1.31 1.565 3.236 1.565 5.677v1.56c0 2.439-.586 4.384-1.612 5.714-1.02 1.322-2.493 2.057-4.325 2.057z" fill="#2C3036" stroke="#20242C" stroke-width=".532"/><path d="M101.234 6.755h19.898v5.462h-19.898V6.755z" fill="#3278FF"/><path d="M103.969 10.325l2.835-2.18-.088-.035a2.533 2.533 0 01-1.166-.946l-1.581 3.161zM108.166 1.995c-.494.617-.678 2.213.446 2.525 1.059.831 1.952.432 2.488-.096.144-.14.135-.294.188-.483.163-.584-.237-1.186-.888-1.653-.496-.355-1.145-.559-1.64-.465-.316.06-.402-.068-.594.172z" fill="#CADCFF"/><path d="M105.66 4.219c-.519.864.345 2.233 1.418 2.877.897.539 1.896.537 2.503.017.241-.208.61-.344.658-.659.119-.777-.422-1.971-1.282-2.487-.655-.393-1.942-.481-2.534-.293-.378.12-.561.208-.763.545z" fill="#CADCFF"/><path fill-rule="evenodd" clip-rule="evenodd" d="M107.077 7.099c-1.072-.645-1.521-1.867-1.002-2.731.202-.336.434-.656.81-.778-.727.052-1.368.386-1.723.976-.649 1.081-.087 2.611 1.255 3.417 1.342.806 2.957.583 3.606-.498.255-.425.323-.92.23-1.412-.112.532-.503 1.011-.99 1.252-.605.298-1.431.227-2.186-.226z" fill="#2C3036"/><ellipse rx="1.926" ry="1.522" transform="matrix(-.81249 -.58298 -.62515 .7805 109.781 3.041)" fill="#2C3036"/><path fill-rule="evenodd" clip-rule="evenodd" d="M110.542 4.79l-.67 1.34c-.128.379-.423.71-.78.886-.502.248-1.189.188-1.815-.188-.891-.535-1.264-1.55-.833-2.268.121-.2.254-.394.435-.524l.927-.927c.068.54.433 1.089 1.014 1.438.589.354 1.229.433 1.722.243z" fill="#3278FF"/><path d="M115.668 10.325l2.835-2.18-.088-.035a2.533 2.533 0 01-1.166-.946l-1.581 3.161zM119.865 1.995c-.494.617-.678 2.213.446 2.525 1.059.831 1.952.432 2.489-.096.143-.14.135-.294.187-.483.163-.584-.237-1.186-.888-1.653-.496-.355-1.145-.559-1.64-.465-.316.06-.402-.068-.594.172z" fill="#CADCFF"/><path d="M117.359 4.219c-.519.864.345 2.233 1.418 2.877.897.539 1.896.537 2.503.017.241-.208.61-.344.658-.659.119-.777-.422-1.971-1.282-2.487-.654-.393-1.942-.481-2.534-.293-.378.12-.561.208-.763.545z" fill="#CADCFF"/><path fill-rule="evenodd" clip-rule="evenodd" d="M118.774 7.096c-1.073-.644-1.522-1.867-1.003-2.73.202-.337.434-.657.811-.778-.728.051-1.369.386-1.723.976-.65 1.08-.088 2.61 1.254 3.417 1.342.806 2.957.583 3.606-.499.255-.425.324-.92.231-1.412a1.88 1.88 0 01-.991 1.252c-.605.298-1.431.227-2.185-.226z" fill="#2C3036"/><ellipse rx="1.926" ry="1.522" transform="matrix(-.81249 -.58298 -.62515 .7805 121.48 3.041)" fill="#2C3036"/><path fill-rule="evenodd" clip-rule="evenodd" d="M122.238 4.788l-.681 1.364c-.133.369-.423.69-.773.863-.502.247-1.188.188-1.815-.188-.89-.535-1.263-1.55-.832-2.268.123-.206.26-.404.448-.534l.913-.913c.069.538.433 1.087 1.014 1.435.591.355 1.233.433 1.726.241z" fill="#3278FF"/><rect x="139" y="1" width="110" height="36" rx="18" fill="#3278FF"/><path d="M164.748 24.171V27.8h-2.014v-3.629c-1.469-.19-2.634-.735-3.496-1.634-.861-.9-1.292-1.995-1.292-3.287 0-1.292.431-2.388 1.292-3.287.862-.9 2.027-1.444 3.496-1.634V10.7h2.014v3.629c1.47.19 2.635.735 3.496 1.634.862.9 1.292 1.995 1.292 3.287 0 1.292-.43 2.388-1.292 3.287-.861.9-2.026 1.444-3.496 1.634zm0-7.885v5.928c.874-.165 1.552-.507 2.033-1.026.482-.532.722-1.178.722-1.938s-.24-1.4-.722-1.919c-.481-.532-1.159-.88-2.033-1.045zm-2.014 5.928v-5.928c-.861.165-1.539.513-2.033 1.045-.481.52-.722 1.159-.722 1.919s.241 1.406.722 1.938c.494.52 1.172.861 2.033 1.026zm11.622-1.691l4.864-6.023h1.577V24h-2.014v-6.042L173.919 24h-1.577v-9.5h2.014v6.023zm16.175-2.242V14.5h2.052V24h-2.052v-3.781h-4.351V24h-2.052v-9.5h2.052v3.781h4.351zm12.907-2.432V14.5h2.052V24h-2.052v-1.368c-.772 1.077-1.881 1.615-3.325 1.615-1.304 0-2.419-.481-3.344-1.444-.924-.963-1.387-2.147-1.387-3.553 0-1.406.463-2.59 1.387-3.553.925-.963 2.04-1.444 3.344-1.444 1.444 0 2.553.532 3.325 1.596zm-5.149 5.586c.57.57 1.286.855 2.147.855.862 0 1.577-.285 2.147-.855.57-.583.855-1.311.855-2.185 0-.874-.285-1.596-.855-2.166-.57-.583-1.285-.874-2.147-.874-.861 0-1.577.291-2.147.874-.57.57-.855 1.292-.855 2.166 0 .861.285 1.59.855 2.185zm16.946-3.154V14.5h2.052V24h-2.052v-3.781h-4.351V24h-2.052v-9.5h2.052v3.781h4.351zm9.867 5.966c-1.431 0-2.628-.481-3.591-1.444-.95-.975-1.425-2.16-1.425-3.553 0-1.419.475-2.603 1.425-3.553.963-.963 2.16-1.444 3.591-1.444.925 0 1.767.222 2.527.665a4.295 4.295 0 011.71 1.786l-1.767 1.026a2.361 2.361 0 00-.988-1.064c-.431-.266-.931-.399-1.501-.399-.836 0-1.539.285-2.109.855-.557.583-.836 1.292-.836 2.128 0 .836.279 1.545.836 2.128.57.57 1.273.855 2.109.855.557 0 1.058-.127 1.501-.38a2.56 2.56 0 001.026-1.083l1.767 1.007a4.48 4.48 0 01-1.767 1.805 4.888 4.888 0 01-2.508.665z" fill="#fff"/></svg><svg fill="none" viewBox="0 0 866 2" id="examination-boundary" xmlns="http://www.w3.org/2000/svg"><rect x="162" width="2" height="4" rx="1" transform="rotate(90 162 0)" fill="#D8DCE7"/><rect x="215" width="2" height="4" rx="1" transform="rotate(90 215 0)" fill="#D8DCE7"/><rect x="144" width="2" height="4" rx="1" transform="rotate(90 144 0)" fill="#D8DCE7"/><rect x="197" width="2" height="4" rx="1" transform="rotate(90 197 0)" fill="#D8DCE7"/><rect x="126" width="2" height="4" rx="1" transform="rotate(90 126 0)" fill="#D8DCE7"/><rect x="179" width="2" height="4" rx="1" transform="rotate(90 179 0)" fill="#D8DCE7"/><rect x="109" width="2" height="4" rx="1" transform="rotate(90 109 0)" fill="#D8DCE7"/><rect x="91" width="2" height="4" rx="1" transform="rotate(90 91 0)" fill="#D8DCE7"/><rect x="74" width="2" height="4" rx="1" transform="rotate(90 74 0)" fill="#D8DCE7"/><rect x="57" width="2" height="4" rx="1" transform="rotate(90 57 0)" fill="#D8DCE7"/><rect x="39" width="2" height="4" rx="1" transform="rotate(90 39 0)" fill="#D8DCE7"/><rect x="21" width="2" height="4" rx="1" transform="rotate(90 21 0)" fill="#D8DCE7"/><rect x="4" width="2" height="4" rx="1" transform="rotate(90 4 0)" fill="#D8DCE7"/><rect x="391" width="2" height="4" rx="1" transform="rotate(90 391 0)" fill="#D8DCE7"/><rect x="444" width="2" height="4" rx="1" transform="rotate(90 444 0)" fill="#D8DCE7"/><rect x="373" width="2" height="4" rx="1" transform="rotate(90 373 0)" fill="#D8DCE7"/><rect x="426" width="2" height="4" rx="1" transform="rotate(90 426 0)" fill="#D8DCE7"/><rect x="355" width="2" height="4" rx="1" transform="rotate(90 355 0)" fill="#D8DCE7"/><rect x="408" width="2" height="4" rx="1" transform="rotate(90 408 0)" fill="#D8DCE7"/><rect x="338" width="2" height="4" rx="1" transform="rotate(90 338 0)" fill="#D8DCE7"/><rect x="320" width="2" height="4" rx="1" transform="rotate(90 320 0)" fill="#D8DCE7"/><rect x="303" width="2" height="4" rx="1" transform="rotate(90 303 0)" fill="#D8DCE7"/><rect x="286" width="2" height="4" rx="1" transform="rotate(90 286 0)" fill="#D8DCE7"/><rect x="268" width="2" height="4" rx="1" transform="rotate(90 268 0)" fill="#D8DCE7"/><rect x="250" width="2" height="4" rx="1" transform="rotate(90 250 0)" fill="#D8DCE7"/><rect x="233" width="2" height="4" rx="1" transform="rotate(90 233 0)" fill="#D8DCE7"/><rect x="620" width="2" height="4" rx="1" transform="rotate(90 620 0)" fill="#D8DCE7"/><rect x="673" width="2" height="4" rx="1" transform="rotate(90 673 0)" fill="#D8DCE7"/><rect x="602" width="2" height="4" rx="1" transform="rotate(90 602 0)" fill="#D8DCE7"/><rect x="655" width="2" height="4" rx="1" transform="rotate(90 655 0)" fill="#D8DCE7"/><rect x="584" width="2" height="4" rx="1" transform="rotate(90 584 0)" fill="#D8DCE7"/><rect x="637" width="2" height="4" rx="1" transform="rotate(90 637 0)" fill="#D8DCE7"/><rect x="567" width="2" height="4" rx="1" transform="rotate(90 567 0)" fill="#D8DCE7"/><rect x="549" width="2" height="4" rx="1" transform="rotate(90 549 0)" fill="#D8DCE7"/><rect x="532" width="2" height="4" rx="1" transform="rotate(90 532 0)" fill="#D8DCE7"/><rect x="515" width="2" height="4" rx="1" transform="rotate(90 515 0)" fill="#D8DCE7"/><rect x="497" width="2" height="4" rx="1" transform="rotate(90 497 0)" fill="#D8DCE7"/><rect x="479" width="2" height="4" rx="1" transform="rotate(90 479 0)" fill="#D8DCE7"/><rect x="462" width="2" height="4" rx="1" transform="rotate(90 462 0)" fill="#D8DCE7"/><rect x="849" width="2" height="4" rx="1" transform="rotate(90 849 0)" fill="#D8DCE7"/><rect x="831" width="2" height="4" rx="1" transform="rotate(90 831 0)" fill="#D8DCE7"/><rect x="813" width="2" height="4" rx="1" transform="rotate(90 813 0)" fill="#D8DCE7"/><rect x="866" width="2" height="4" rx="1" transform="rotate(90 866 0)" fill="#D8DCE7"/><rect x="796" width="2" height="4" rx="1" transform="rotate(90 796 0)" fill="#D8DCE7"/><rect x="778" width="2" height="4" rx="1" transform="rotate(90 778 0)" fill="#D8DCE7"/><rect x="761" width="2" height="4" rx="1" transform="rotate(90 761 0)" fill="#D8DCE7"/><rect x="744" width="2" height="4" rx="1" transform="rotate(90 744 0)" fill="#D8DCE7"/><rect x="726" width="2" height="4" rx="1" transform="rotate(90 726 0)" fill="#D8DCE7"/><rect x="708" width="2" height="4" rx="1" transform="rotate(90 708 0)" fill="#D8DCE7"/><rect x="691" width="2" height="4" rx="1" transform="rotate(90 691 0)" fill="#D8DCE7"/></svg><svg fill="none" viewBox="0 0 20 15" id="examination-check" xmlns="http://www.w3.org/2000/svg"><path d="M18 1.974l-11 11-5-5" stroke="#34CE69" stroke-width="2.5" stroke-linecap="round" stroke-linejoin="round"/></svg><svg fill="none" viewBox="0 0 20 21" id="eye" xmlns="http://www.w3.org/2000/svg"><path d="M.832 10.433s3.333-6.666 9.167-6.666c5.833 0 9.166 6.666 9.166 6.666S15.832 17.1 10 17.1c-5.834 0-9.167-6.667-9.167-6.667z" stroke="#9CA0AE" stroke-width="1.6" stroke-linecap="round" stroke-linejoin="round"/><path d="M10 12.934a2.5 2.5 0 100-5 2.5 2.5 0 000 5z" stroke="#9CA0AE" stroke-width="1.6" stroke-linecap="round" stroke-linejoin="round"/></svg><svg fill="none" viewBox="0 0 24 21" id="favorite" xmlns="http://www.w3.org/2000/svg"><path d="M12.62 19.71c-.34.12-.9.12-1.24 0C8.48 18.72 2 14.59 2 7.59 2 4.5 4.49 2 7.56 2c1.82 0 3.43.88 4.44 2.24A5.53 5.53 0 0116.44 2C19.51 2 22 4.5 22 7.59c0 7-6.48 11.13-9.38 12.12z" stroke="#fff" stroke-width="2.3" stroke-linecap="round" stroke-linejoin="round"/></svg><svg fill="none" viewBox="0 0 24 21" id="favorite-fill" xmlns="http://www.w3.org/2000/svg"><path d="M12.62 19.71c-.34.12-.9.12-1.24 0C8.48 18.72 2 14.59 2 7.59 2 4.5 4.49 2 7.56 2c1.82 0 3.43.88 4.44 2.24A5.53 5.53 0 0116.44 2C19.51 2 22 4.5 22 7.59c0 7-6.48 11.13-9.38 12.12z" fill="#fff" stroke="#fff" stroke-width="2.3" stroke-linecap="round" stroke-linejoin="round"/></svg><svg fill="none" viewBox="0 0 77 32" id="info-title" xmlns="http://www.w3.org/2000/svg"><path fill-rule="evenodd" clip-rule="evenodd" d="M24.856 1.631C-.132 5.559-7.983 17.586 9.176 25.652c22.566 10.609 65.462 4.696 66.987-9.233C77.314 5.903 49.21-2.197 24.856 1.63zm1.638 6.544a1540.311 1540.311 0 01-4.186 9.359c-.919 2.026-1.67 3.81-1.67 3.965 0 .779 13.51-.415 16.91-1.494 7.922-2.516 13.69-8.555 13.361-13.99-.212-3.517-.08-3.555 6.219-1.81 20.24 5.61 18.725 19.302-2.642 23.877l-1.871.401.886-1.713c1.277-2.47 1.106-3.731-.801-5.903-1.977-2.251-2.062-2.617-.609-2.617 1.677 0 2.859-.606 2.859-1.466 0-1.15-5.815-1.054-7.614.125-1.06.695-1.386 1.397-1.386 2.995 0 2.751-1.673 4.29-5.639 5.188-3.435.778-17.385.992-19.86.305-1.338-.371-1.643-.255-1.899.721-.343 1.315-.728 1.254-5.573-.89C-.675 19.191 2.622 8.777 19.626 4.225c9.993-2.675 9.844-2.761 6.868 3.95zm9.216-4.12c2.024 2.716-4.646 12.304-10.201 14.664-.879.372-1.512.46-1.407.194.106-.266 1.819-4.09 3.806-8.499L31.523 2.4l1.73.34c.95.186 2.056.778 2.457 1.315z" fill="#8990AB"/></svg><svg viewBox="0 0 22 21" fill="none" id="like" xmlns="http://www.w3.org/2000/svg"><path d="M6.898 17.514V6.546c0-.432.13-.853.367-1.21L10.212.956c.464-.701 1.62-1.198 2.602-.83 1.057.355 1.759 1.543 1.532 2.6l-.56 3.53c-.044.324.042.616.226.842.183.205.453.335.745.335h4.436c.853 0 1.587.345 2.018.95.41.583.486 1.338.216 2.105l-2.655 8.084C18.437 19.91 16.98 21 15.534 21h-4.21c-.723 0-1.738-.248-2.202-.712L7.74 19.219a2.142 2.142 0 01-.842-1.706zM3.465 4.442H2.353C.68 4.442 0 5.09 0 6.688v10.858c0 1.598.68 2.246 2.353 2.246h1.112c1.673 0 2.353-.648 2.353-2.246V6.688c0-1.598-.68-2.246-2.353-2.246z" fill="#5071E6"/></svg><svg viewBox="0 0 15 18" fill="none" id="location" xmlns="http://www.w3.org/2000/svg"><path d="M14.318 5.482C13.46 1.702 10.162 0 7.265 0h-.008C4.37 0 1.064 1.694.205 5.474-.753 9.695 1.833 13.27 4.173 15.52c.867.834 1.98 1.865 3.092 1.865 1.113 0 2.226-1.03 3.085-1.865 2.34-2.25 4.925-5.817 3.968-10.04zM7.265 9.58a2.577 2.577 0 110-5.154 2.577 2.577 0 010 5.154z" fill="#9EA6C4"/></svg><svg viewBox="0 0 233 69" fill="none" id="logo" xmlns="http://www.w3.org/2000/svg"><path d="M208.713 67.818c12.822 0 18.684-5.275 18.684-16.78V27.08h-13.116v23.96c0 4.543-1.758 6.594-5.568 6.594-3.737 0-5.496-2.051-5.496-6.594v-23.96h-13.115v23.96c0 11.504 5.861 16.78 18.611 16.78z" fill="#3278FF"/><path d="M18.032 37.32h-.001c-2.802-1.253-5.39-2.417-7.287-3.977-1.868-1.537-3.042-3.437-3.042-6.19v-.22c0-2.53 1-4.585 2.74-6.016 1.749-1.44 4.283-2.277 7.385-2.277 3.204 0 6.87.927 10.857 2.74l.661.3.045-.725.293-4.762.022-.359-.332-.135c-3.652-1.49-8.04-2.309-11.766-2.309-4.748 0-8.74 1.384-11.551 3.872-2.818 2.493-4.41 6.059-4.41 10.33 0 4.406 1.72 7.414 4.253 9.67 2.5 2.228 5.795 3.722 8.927 5.142l.009.004s0 0 0 0c2.91 1.327 5.68 2.6 7.732 4.35 2.024 1.725 3.332 3.901 3.332 7.065v.22c0 2.792-1.076 5.066-2.963 6.651-1.895 1.593-4.647 2.521-8.04 2.521-3.794 0-8.113-1.075-12.23-3.17l-.657-.334-.067.735-.44 4.836-.033.366.34.14c3.94 1.636 8.84 2.677 13.16 2.677 5.11 0 9.36-1.437 12.34-4.083 2.985-2.652 4.646-6.477 4.646-11.145 0-4.841-1.845-8.106-4.535-10.52-2.626-2.357-6.055-3.898-9.263-5.34l-.125-.056zm39.841 30.173l.363-.103v-5.175l-.658.22c-1.259.42-2.89.634-4.165.634-1.654 0-2.811-.495-3.57-1.42-.775-.945-1.206-2.422-1.206-4.528V32.195h9.599v-5.03h-9.599V16.778l-.553.06-4.763.513-.447.048V27.166h-6.448v5.03h6.448v25.657c0 3.429.725 6.063 2.296 7.842 1.583 1.79 3.94 2.623 6.997 2.623 1.73 0 3.609-.226 5.706-.825zm36.538-1.78l.334-.141-.032-.362-.366-4.176-.063-.715-.649.306c-3.828 1.806-7.712 2.737-11.217 2.737-4.11 0-7.255-1.23-9.408-3.643-2.09-2.343-3.307-5.87-3.486-10.671h26.803v-1.746c0-6.792-1.308-12.044-3.935-15.61-2.646-3.592-6.58-5.406-11.659-5.406-5.373 0-9.682 1.98-12.636 5.684-2.942 3.69-4.496 9.034-4.496 15.699 0 6.663 1.554 11.839 4.668 15.352 3.124 3.524 7.747 5.297 13.71 5.297 4.174 0 8.417-.894 12.432-2.604zm16.939 1.726h.5v-24.9c0-3.374 1.064-6.138 2.885-8.054 1.818-1.914 4.43-3.022 7.606-3.022 2.861 0 4.979.879 6.391 2.502 1.422 1.635 2.194 4.101 2.194 7.402V67.44h5.836V40.854c0-4.616-1.116-8.268-3.321-10.771-2.214-2.514-5.461-3.797-9.562-3.797-5.221 0-9.576 2.084-12.176 5.74v-4.86h-5.689v40.273h5.336zm62.809-55.454v20.587c-1.138-1.85-2.559-3.303-4.258-4.344-2.126-1.302-4.656-1.942-7.552-1.942-5.085 0-9.106 1.91-11.839 5.558-2.718 3.627-4.121 8.914-4.121 15.605 0 6.58 1.366 11.792 4.008 15.372 2.659 3.602 6.57 5.497 11.513 5.497 3.123 0 5.825-.754 8.072-2.255 1.803-1.204 3.292-2.876 4.47-4.985v6.361h5.469V11.485h-5.762v.5zm-83.833 32.4H69.612c.275-4.298 1.378-7.577 3.158-9.794 1.838-2.288 4.436-3.495 7.743-3.495 3.16 0 5.508 1.131 7.124 3.365 1.577 2.181 2.494 5.467 2.689 9.923zm72.683 18.903c-3.438 0-6.083-1.357-7.888-3.944-1.824-2.612-2.823-6.526-2.823-11.675v-.66c0-5.109 1.034-9.04 2.912-11.68 1.86-2.618 4.58-4.013 8.092-4.013 3.368 0 6.057 1.343 7.918 3.787 1.873 2.46 2.939 6.078 2.939 10.66v2.931c0 4.58-1.101 8.234-3.028 10.731-1.917 2.483-4.681 3.863-8.122 3.863z" fill="#2C3036" stroke="#2C3036"/><path d="M190.25 11.983h37.369v10.258H190.25V11.983z" fill="#3278FF"/><path d="M195.383 18.69l5.324-4.096-.165-.066a4.756 4.756 0 01-2.19-1.777l-2.969 5.938zM203.265 3.045c-.927 1.158-1.272 4.155.838 4.741 1.989 1.561 3.667.81 4.674-.18.269-.264.254-.552.353-.907.306-1.096-.446-2.227-1.669-3.104-.931-.668-2.15-1.05-3.079-.874-.594.112-.755-.127-1.117.324z" fill="#CADCFF"/><path d="M198.558 7.222c-.974 1.622.649 4.193 2.663 5.402 1.685 1.012 3.562 1.01 4.701.032.453-.389 1.145-.646 1.236-1.237.224-1.46-.793-3.701-2.408-4.671-1.229-.738-3.647-.904-4.759-.55-.71.226-1.053.39-1.433 1.024z" fill="#CADCFF"/><path fill-rule="evenodd" clip-rule="evenodd" d="M201.222 12.63c-2.014-1.21-2.857-3.506-1.883-5.129.38-.632.817-1.234 1.526-1.461-1.369.095-2.576.724-3.243 1.833-1.219 2.03-.164 4.904 2.356 6.418 2.521 1.513 5.553 1.094 6.773-.936.478-.796.606-1.722.434-2.644-.213.996-.946 1.893-1.859 2.344-1.135.56-2.687.425-4.104-.425z" fill="#2C3036"/><ellipse rx="3.618" ry="2.858" transform="matrix(-.81249 -.58298 -.62515 .7805 206.298 5.009)" fill="#2C3036"/><path fill-rule="evenodd" clip-rule="evenodd" d="M207.723 8.293l-1.258 2.516a2.964 2.964 0 01-1.466 1.664c-.943.464-2.232.353-3.408-.353-1.673-1.005-2.373-2.912-1.564-4.26.226-.377.478-.74.819-.986l1.737-1.736c.128 1.012.813 2.044 1.905 2.7 1.106.664 2.309.812 3.235.455z" fill="#3278FF"/><path d="M217.36 18.69l5.324-4.096-.165-.066a4.75 4.75 0 01-2.19-1.777l-2.969 5.938zM225.242 3.045c-.927 1.158-1.273 4.155.838 4.741 1.989 1.561 3.666.81 4.673-.18.27-.264.254-.552.353-.907.306-1.096-.445-2.227-1.668-3.104-.931-.668-2.151-1.05-3.08-.874-.594.112-.755-.127-1.116.324z" fill="#CADCFF"/><path d="M220.535 7.222c-.975 1.622.648 4.193 2.662 5.402 1.685 1.012 3.562 1.01 4.701.032.454-.389 1.146-.646 1.237-1.237.224-1.46-.793-3.701-2.408-4.671-1.229-.738-3.648-.904-4.759-.55-.71.226-1.053.39-1.433 1.024z" fill="#CADCFF"/><path fill-rule="evenodd" clip-rule="evenodd" d="M223.195 12.625c-2.015-1.21-2.858-3.506-1.883-5.129.379-.632.817-1.234 1.526-1.46-1.37.094-2.577.723-3.243 1.832-1.219 2.03-.165 4.904 2.356 6.418 2.521 1.514 5.553 1.094 6.772-.936.478-.796.607-1.722.435-2.644-.214.996-.946 1.894-1.86 2.344-1.135.56-2.687.426-4.103-.425z" fill="#2C3036"/><ellipse rx="3.618" ry="2.858" transform="matrix(-.81249 -.58298 -.62515 .7805 228.274 5.009)" fill="#2C3036"/><path fill-rule="evenodd" clip-rule="evenodd" d="M229.703 8.29l-1.273 2.546c-.246.7-.794 1.31-1.456 1.637-.943.464-2.232.353-3.409-.353-1.672-1.005-2.372-2.912-1.563-4.26.23-.382.485-.752.835-.997l1.716-1.717c.131 1.01.815 2.039 1.904 2.693 1.111.667 2.319.813 3.246.451z" fill="#3278FF"/></svg><svg fill="none" viewBox="0 0 29 31" id="map-marker" xmlns="http://www.w3.org/2000/svg"><g filter="url(#bwfilter0_b_653_11520)"><circle cx="13.5" cy="14.054" r="13.074" fill="#8196DF" fill-opacity=".15"/></g><g filter="url(#bwfilter1_d_653_11520)"><circle cx="13.5" cy="14.054" r="8.32" fill="#4067F0"/><circle cx="13.5" cy="14.054" r="7.131" stroke="#F3F6FF" stroke-width="2.377"/></g><defs><filter id="bwfilter0_b_653_11520" x="-11.46" y="-10.906" width="49.92" height="49.92" filterUnits="userSpaceOnUse" color-interpolation-filters="sRGB"><feFlood flood-opacity="0" result="BackgroundImageFix"/><feGaussianBlur in="BackgroundImage" stdDeviation="5.943"/><feComposite in2="SourceAlpha" operator="in" result="effect1_backgroundBlur_653_11520"/><feBlend in="SourceGraphic" in2="effect1_backgroundBlur_653_11520" result="shape"/></filter><filter id="bwfilter1_d_653_11520" x="2.803" y="4.546" width="26.149" height="26.148" filterUnits="userSpaceOnUse" color-interpolation-filters="sRGB"><feFlood flood-opacity="0" result="BackgroundImageFix"/><feColorMatrix in="SourceAlpha" values="0 0 0 0 0 0 0 0 0 0 0 0 0 0 0 0 0 0 127 0" result="hardAlpha"/><feOffset dx="2.377" dy="3.566"/><feGaussianBlur stdDeviation="2.377"/><feComposite in2="hardAlpha" operator="out"/><feColorMatrix values="0 0 0 0 0.608281 0 0 0 0 0.684926 0 0 0 0 0.954167 0 0 0 1 0"/><feBlend in2="BackgroundImageFix" result="effect1_dropShadow_653_11520"/><feBlend in="SourceGraphic" in2="effect1_dropShadow_653_11520" result="shape"/></filter></defs></svg><svg fill="none" viewBox="0 0 70 96" id="map-marker2" xmlns="http://www.w3.org/2000/svg"><path d="M70 35.95c0 17.677-13.294 32.329-29.674 34.974-.76.425-3.043 2.685-5.326 8.71-3.804-8.285-4.565-8.285-5.326-8.71C13.294 68.279 0 53.627 0 35.95 0 16.399 16.09.55 35 .55s35 15.849 35 35.4z" fill="#2A83E8"/><path d="M70 35.95c0 17.677-13.294 32.329-29.674 34.974-.76.425-3.043 2.685-5.326 8.71-3.804-8.285-4.565-8.285-5.326-8.71C13.294 68.279 0 53.627 0 35.95 0 16.399 16.09.55 35 .55s35 15.849 35 35.4z" fill="url(#bxpaint0_linear_621_15848)"/><path d="M35 44.234c5.463 0 9.892-4.384 9.892-9.791 0-5.408-4.429-9.792-9.892-9.792-5.463 0-9.891 4.384-9.891 9.792 0 5.407 4.428 9.791 9.891 9.791zM35.254 95.45c3.361 0 6.086-2.697 6.086-6.025 0-3.328-2.725-6.026-6.087-6.026-3.361 0-6.087 2.698-6.087 6.026s2.726 6.025 6.088 6.025z" fill="#fff"/><path d="M35.127 92.438c1.68 0 3.043-1.35 3.043-3.013 0-1.664-1.362-3.013-3.043-3.013-1.68 0-3.044 1.349-3.044 3.013s1.363 3.013 3.044 3.013z" fill="#375DE2"/><defs><linearGradient id="bxpaint0_linear_621_15848" x1="50" y1="101.5" x2="86.436" y2="29.425" gradientUnits="userSpaceOnUse"><stop stop-color="#4067F0"/><stop offset="1" stop-color="#375DE2"/></linearGradient></defs></svg><svg fill="none" viewBox="0 0 15 15" id="menu" xmlns="http://www.w3.org/2000/svg"><path d="M11.882 5.92a2.96 2.96 0 100-5.92 2.96 2.96 0 000 5.92zM2.96 5.92a2.96 2.96 0 100-5.92 2.96 2.96 0 000 5.92zM11.882 14.84a2.96 2.96 0 100-5.92 2.96 2.96 0 000 5.92zM2.96 14.84a2.96 2.96 0 100-5.92 2.96 2.96 0 000 5.92z" fill="#4067F0"/></svg><svg viewBox="0 0 22 14" fill="none" id="menu-btn" xmlns="http://www.w3.org/2000/svg"><path d="M1 13h13M1 7h20M1 1h16" stroke="#20242C" stroke-width="2" stroke-linecap="round" stroke-linejoin="round"/></svg><svg viewBox="0 0 24 24" fill="none" id="menu-mob-announcements" xmlns="http://www.w3.org/2000/svg"><g clip-path="url(#caclip0_220_3)"><g filter="url(#cafilter0_d_220_3)"><path d="M22 8.52V3.98C22 2.57 21.36 2 19.77 2h-4.04c-1.59 0-2.23.57-2.23 1.98v4.53c0 1.42.64 1.98 2.23 1.98h4.04c1.59.01 2.23-.56 2.23-1.97z" fill="#4067F0"/></g><g filter="url(#cafilter1_d_220_3)"><path d="M22 19.77v-4.04c0-1.59-.64-2.23-2.23-2.23h-4.04c-1.59 0-2.23.64-2.23 2.23v4.04c0 1.59.64 2.23 2.23 2.23h4.04c1.59 0 2.23-.64 2.23-2.23z" fill="#4067F0"/></g><g filter="url(#cafilter2_d_220_3)"><path d="M10.5 8.52V3.98C10.5 2.57 9.86 2 8.27 2H4.23C2.64 2 2 2.57 2 3.98v4.53c0 1.42.64 1.98 2.23 1.98h4.04c1.59.01 2.23-.56 2.23-1.97z" fill="#4067F0"/></g><g filter="url(#cafilter3_d_220_3)"><path d="M10.5 19.77v-4.04c0-1.59-.64-2.23-2.23-2.23H4.23c-1.59 0-2.23.64-2.23 2.23v4.04C2 21.36 2.64 22 4.23 22h4.04c1.59 0 2.23-.64 2.23-2.23z" fill="#4067F0"/></g></g><defs><filter id="cafilter0_d_220_3" x="-12.285" y="-23.785" width="77.26" height="77.25" filterUnits="userSpaceOnUse" color-interpolation-filters="sRGB"><feFlood flood-opacity="0" result="BackgroundImageFix"/><feColorMatrix in="SourceAlpha" values="0 0 0 0 0 0 0 0 0 0 0 0 0 0 0 0 0 0 127 0" result="hardAlpha"/><feOffset dx="8.595" dy="8.595"/><feGaussianBlur stdDeviation="17.19"/><feColorMatrix values="0 0 0 0 0.15375 0 0 0 0 0.407475 0 0 0 0 0.9 0 0 0 0.25 0"/><feBlend in2="BackgroundImageFix" result="effect1_dropShadow_220_3"/><feBlend in="SourceGraphic" in2="effect1_dropShadow_220_3" result="shape"/></filter><filter id="cafilter1_d_220_3" x="-12.285" y="-12.285" width="77.26" height="77.26" filterUnits="userSpaceOnUse" color-interpolation-filters="sRGB"><feFlood flood-opacity="0" result="BackgroundImageFix"/><feColorMatrix in="SourceAlpha" values="0 0 0 0 0 0 0 0 0 0 0 0 0 0 0 0 0 0 127 0" result="hardAlpha"/><feOffset dx="8.595" dy="8.595"/><feGaussianBlur stdDeviation="17.19"/><feColorMatrix values="0 0 0 0 0.15375 0 0 0 0 0.407475 0 0 0 0 0.9 0 0 0 0.25 0"/><feBlend in2="BackgroundImageFix" result="effect1_dropShadow_220_3"/><feBlend in="SourceGraphic" in2="effect1_dropShadow_220_3" result="shape"/></filter><filter id="cafilter2_d_220_3" x="-23.785" y="-23.785" width="77.26" height="77.25" filterUnits="userSpaceOnUse" color-interpolation-filters="sRGB"><feFlood flood-opacity="0" result="BackgroundImageFix"/><feColorMatrix in="SourceAlpha" values="0 0 0 0 0 0 0 0 0 0 0 0 0 0 0 0 0 0 127 0" result="hardAlpha"/><feOffset dx="8.595" dy="8.595"/><feGaussianBlur stdDeviation="17.19"/><feColorMatrix values="0 0 0 0 0.15375 0 0 0 0 0.407475 0 0 0 0 0.9 0 0 0 0.25 0"/><feBlend in2="BackgroundImageFix" result="effect1_dropShadow_220_3"/><feBlend in="SourceGraphic" in2="effect1_dropShadow_220_3" result="shape"/></filter><filter id="cafilter3_d_220_3" x="-23.785" y="-12.285" width="77.26" height="77.26" filterUnits="userSpaceOnUse" color-interpolation-filters="sRGB"><feFlood flood-opacity="0" result="BackgroundImageFix"/><feColorMatrix in="SourceAlpha" values="0 0 0 0 0 0 0 0 0 0 0 0 0 0 0 0 0 0 127 0" result="hardAlpha"/><feOffset dx="8.595" dy="8.595"/><feGaussianBlur stdDeviation="17.19"/><feColorMatrix values="0 0 0 0 0.15375 0 0 0 0 0.407475 0 0 0 0 0.9 0 0 0 0.25 0"/><feBlend in2="BackgroundImageFix" result="effect1_dropShadow_220_3"/><feBlend in="SourceGraphic" in2="effect1_dropShadow_220_3" result="shape"/></filter><clipPath id="caclip0_220_3"><path fill="#fff" d="M0 0h24v24H0z"/></clipPath></defs></svg><svg viewBox="0 0 24 24" fill="none" id="menu-mob-favorite" xmlns="http://www.w3.org/2000/svg"><path d="M12.62 20.914c-.34.115-.9.115-1.24 0C8.48 19.968 2 16.024 2 9.339 2 6.388 4.49 4 7.56 4c1.82 0 3.43.84 4.44 2.14C13.01 4.84 14.63 4 16.44 4 19.51 4 22 6.388 22 9.339c0 6.685-6.48 10.63-9.38 11.575z" fill="#CBD0E4"/></svg><svg viewBox="0 0 24 24" fill="none" id="menu-mob-like" xmlns="http://www.w3.org/2000/svg"><path d="M8.39 18.49V8.33c0-.4.12-.79.34-1.12l2.73-4.06c.43-.65 1.5-1.11 2.41-.77.98.33 1.63 1.43 1.42 2.41l-.52 3.27c-.04.3.04.57.21.78.17.19.42.31.69.31h4.11c.79 0 1.47.32 1.87.88.38.54.45 1.24.2 1.95l-2.46 7.49c-.31 1.24-1.66 2.25-3 2.25h-3.9c-.67 0-1.61-.23-2.04-.66l-1.28-.99c-.49-.37-.78-.96-.78-1.58zM5.21 6.38H4.18C2.63 6.38 2 6.98 2 8.46v10.06c0 1.48.63 2.08 2.18 2.08h1.03c1.55 0 2.18-.6 2.18-2.08V8.46c0-1.48-.63-2.08-2.18-2.08z" fill="#CBD0E4"/></svg><svg viewBox="0 0 24 24" fill="none" id="menu-mob-message" xmlns="http://www.w3.org/2000/svg"><path d="M17 2H7C4.24 2 2 4.231 2 6.982v6.984c0 2.751 2.24 4.982 5 4.982h1.5c.27 0 .63.18.8.4l1.5 1.992c.66.88 1.74.88 2.4 0l1.5-1.991c.19-.25.49-.4.8-.4H17c2.76 0 5-2.232 5-4.983V6.982C22 4.232 19.76 2 17 2zM8 12.005c-.56 0-1-.45-1-1s.45-1.001 1-1.001 1 .45 1 1-.44 1.001-1 1.001zm4 0c-.56 0-1-.45-1-1s.45-1.001 1-1.001 1 .45 1 1-.44 1.001-1 1.001zm4 0c-.56 0-1-.45-1-1s.45-1.001 1-1.001 1 .45 1 1-.44 1.001-1 1.001z" fill="#CBD0E4"/></svg><svg fill="none" viewBox="0 0 24 25" id="menu-mob-notification" xmlns="http://www.w3.org/2000/svg"><path d="M19.342 15.4l-1-1.66c-.21-.37-.4-1.07-.4-1.48V9.73a5.91 5.91 0 00-3.37-5.33 2.926 2.926 0 00-2.58-1.49c-1.09 0-2.07.59-2.59 1.52-1.95.97-3.3 2.98-3.3 5.3v2.53c0 .41-.19 1.11-.4 1.47l-1.01 1.67c-.4.67-.49 1.41-.24 2.09.24.67.81 1.19 1.55 1.44 1.94.66 3.98.98 6.02.98 2.04 0 4.08-.32 6.02-.97.7-.23 1.24-.76 1.5-1.45s.19-1.45-.2-2.09zM14.83 20.92A3.014 3.014 0 0112 22.91c-.79 0-1.57-.32-2.12-.89-.32-.3-.56-.7-.7-1.11.13.02.26.03.4.05.23.03.47.06.71.08.57.05 1.15.08 1.73.08.57 0 1.14-.03 1.7-.08.21-.02.42-.03.62-.06l.49-.06z" fill="#CBD0E4"/></svg><svg fill="none" viewBox="0 0 17 17" id="menu-mob-plus" xmlns="http://www.w3.org/2000/svg"><path d="M8.5 3.542v9.917M3.543 8.5h9.917" stroke="#fff" stroke-width="2" stroke-linecap="round" stroke-linejoin="round"/></svg><svg fill="none" viewBox="0 0 24 24" id="menu-mob-setting" xmlns="http://www.w3.org/2000/svg"><path d="M20.1 9.22c-1.81 0-2.55-1.28-1.65-2.85.52-.91.21-2.07-.7-2.59l-1.73-.99c-.79-.47-1.81-.19-2.28.6l-.11.19c-.9 1.57-2.38 1.57-3.29 0l-.11-.19a1.641 1.641 0 00-2.26-.6l-1.73.99c-.91.52-1.22 1.69-.7 2.6.91 1.56.17 2.84-1.64 2.84-1.04 0-1.9.85-1.9 1.9v1.76c0 1.04.85 1.9 1.9 1.9 1.81 0 2.55 1.28 1.64 2.85-.52.91-.21 2.07.7 2.59l1.73.99c.79.47 1.81.19 2.28-.6l.11-.19c.9-1.57 2.38-1.57 3.29 0l.11.19c.47.79 1.49 1.07 2.28.6l1.73-.99c.91-.52 1.22-1.69.7-2.59-.91-1.57-.17-2.85 1.64-2.85 1.04 0 1.9-.85 1.9-1.9v-1.76a1.92 1.92 0 00-1.91-1.9zM12 15.25c-1.79 0-3.25-1.46-3.25-3.25S10.21 8.75 12 8.75s3.25 1.46 3.25 3.25-1.46 3.25-3.25 3.25z" fill="#CBD0E4"/></svg><svg fill="none" viewBox="0 0 23 23" id="message-white" xmlns="http://www.w3.org/2000/svg"><path d="M17.25.434H5.75C2.576.434 0 2.888 0 5.914v7.682c0 3.027 2.576 5.48 5.75 5.48h1.725c.31 0 .725.199.92.441l1.725 2.19c.759.969 2.001.969 2.76 0l1.725-2.19c.218-.275.563-.44.92-.44h1.725c3.174 0 5.75-2.454 5.75-5.48V5.913c0-3.026-2.576-5.48-5.75-5.48zM6.9 11.439c-.644 0-1.15-.495-1.15-1.1 0-.606.518-1.101 1.15-1.101.632 0 1.15.495 1.15 1.1 0 .606-.506 1.101-1.15 1.101zm4.6 0c-.644 0-1.15-.495-1.15-1.1 0-.606.518-1.101 1.15-1.101.633 0 1.15.495 1.15 1.1 0 .606-.506 1.101-1.15 1.101zm4.6 0c-.644 0-1.15-.495-1.15-1.1 0-.606.518-1.101 1.15-1.101.633 0 1.15.495 1.15 1.1 0 .606-.506 1.101-1.15 1.101z" fill="#E3E9FF"/></svg><svg fill="none" viewBox="0 0 20 21" id="phone" xmlns="http://www.w3.org/2000/svg"><path d="M20 16.764c0 .36-.08.73-.25 1.09-.17.36-.391.7-.681 1.02-.491.54-1.032.93-1.643 1.18-.6.25-1.252.38-1.953.38-1.021 0-2.113-.24-3.265-.73a17.598 17.598 0 01-3.445-1.98 28.782 28.782 0 01-3.285-2.8 28.424 28.424 0 01-2.794-3.27c-.821-1.14-1.482-2.28-1.963-3.41C.241 7.104 0 6.014 0 4.974c0-.68.12-1.33.36-1.93.24-.61.621-1.17 1.152-1.67.641-.63 1.342-.94 2.083-.94.28 0 .561.06.812.18.26.12.49.3.67.56l2.324 3.27c.18.25.31.48.4.7.09.21.14.42.14.61 0 .24-.07.48-.21.71-.13.23-.32.47-.56.71l-.761.79c-.11.11-.16.24-.16.4 0 .08.01.15.03.23.03.08.06.14.08.2.18.33.49.76.93 1.28.452.52.932 1.05 1.453 1.58.54.53 1.062 1.02 1.592 1.47.521.44.952.74 1.292.92.05.02.11.05.18.08.08.03.161.04.251.04.17 0 .3-.06.41-.17l.762-.75c.25-.25.49-.44.72-.56.231-.14.462-.21.712-.21.19 0 .39.04.61.13.221.09.452.22.702.39l3.315 2.35c.26.18.44.39.55.64.1.25.161.5.161.78z" fill="#E7FFEF"/></svg><svg fill="none" viewBox="0 0 17 2" id="rectangle" xmlns="http://www.w3.org/2000/svg"><g clip-path="url(#cjclip0_301_12)"><path fill="#C6CAD7" d="M10 0v2H7V0z"/></g><defs><clipPath id="cjclip0_301_12"><path fill="#fff" d="M0 0h17v2H0z"/></clipPath></defs></svg><svg fill="none" viewBox="0 0 18 17" id="search" xmlns="http://www.w3.org/2000/svg"><path d="M8.11 14.486a6.61 6.61 0 100-13.22 6.61 6.61 0 000 13.22zM16.11 15.877l-1.391-1.392" stroke="#fff" stroke-width="2" stroke-linecap="round" stroke-linejoin="round"/></svg><svg fill="none" viewBox="0 0 38 5" id="search-decor1" xmlns="http://www.w3.org/2000/svg"><g clip-path="url(#clclip0_301_12)"><path fill-rule="evenodd" clip-rule="evenodd" d="M144.5 0c18.225 0 33 14.775 33 33s-14.775 33-33 33H37.185c-1.108 0-2.2-.262-3.186-.765l-8.327-4.244a9.187 9.187 0 00-8.344 0l-1.377.702A39.502 39.502 0 01-1.985 66H-759c-18.225 0-33-14.775-33-33s14.775-33 33-33H-1.259c.42 0 .84.006 1.259.017V5h38V0h106.5zM37.056 0H0v.017a47.445 47.445 0 0115.681 3.11l2.249.86a10 10 0 007.14 0L34.047.555A8.427 8.427 0 0137.056 0z" fill="#E4E7F3"/></g><defs><clipPath id="clclip0_301_12"><path fill="#fff" d="M0 0h38v5H0z"/></clipPath></defs></svg><svg fill="none" viewBox="0 0 38 6" id="search-decor2" xmlns="http://www.w3.org/2000/svg"><g clip-path="url(#cmclip0_301_12)"><path fill-rule="evenodd" clip-rule="evenodd" d="M143.5-60c18.225 0 33 14.775 33 33s-14.775 33-33 33H38V0H20.944a9.195 9.195 0 00-.888 0H0v5.887A39.5 39.5 0 01-2.985 6H-760c-18.225 0-33-14.775-33-33s14.775-33 33-33H-2.259c5.79 0 11.532 1.06 16.94 3.127l2.249.86a10 10 0 007.14 0l8.977-3.432A8.426 8.426 0 0136.056-60H143.5zM0 5.887V6h36.185c-1.108 0-2.2-.262-3.186-.765L24.672.991A9.182 9.182 0 0020.944 0h-.888a9.182 9.182 0 00-3.728.991l-1.377.702A39.5 39.5 0 010 5.887z" fill="#E4E7F3"/></g><defs><clipPath id="cmclip0_301_12"><path fill="#fff" d="M0 0h38v6H0z"/></clipPath></defs></svg><svg fill="none" viewBox="0 0 22 22" id="search-mob" xmlns="http://www.w3.org/2000/svg"><path d="M10 19a9 9 0 100-18 9 9 0 000 18zM21 21l-2-2" stroke="#BBBFCC" stroke-width="1.7" stroke-linecap="round" stroke-linejoin="round"/></svg><svg fill="none" viewBox="0 0 15 9" id="select-btn" xmlns="http://www.w3.org/2000/svg"><path d="M2 2l5.5 5L13 2" stroke="#7B7F8E" stroke-width="2.2" stroke-linecap="round" stroke-linejoin="round"/></svg><svg fill="none" viewBox="0 0 15 9" id="selector-arrow-black" xmlns="http://www.w3.org/2000/svg"><path d="M2 2l5.5 5L13 2" stroke="#20242C" stroke-width="2.2" stroke-linecap="round" stroke-linejoin="round"/></svg><svg fill="none" viewBox="0 0 22 22" id="social-PA" xmlns="http://www.w3.org/2000/svg"><path d="M11.367 9.983c-.075-.011-.17-.011-.256 0a3.485 3.485 0 01-3.369-3.486A3.492 3.492 0 0111.24 3a3.499 3.499 0 013.496 3.497 3.492 3.492 0 01-3.368 3.486zM18.42 17.019c-.27 2.159-4.413 2.793-7.184 2.793-2.772 0-6.57-.634-7.185-2.793-.295-1.034.746-1.983 1.887-2.75 2.92-1.94 7.696-1.94 10.596 0 1.14.767 1.962 1.797 1.887 2.75z" fill="#4067F0" stroke="#4067F0" stroke-width="1.5" stroke-linecap="round" stroke-linejoin="round"/></svg><svg fill="none" viewBox="0 0 19 20" id="social-PA-mob" xmlns="http://www.w3.org/2000/svg"><path d="M9.385 9.77a4.385 4.385 0 100-8.77 4.385 4.385 0 000 8.77zM17.82 18.54c0-3.395-4.253-5.263-8.41-5.263S1 15.145 1 18.54" stroke="#20242C" stroke-width="2" stroke-linecap="round" stroke-linejoin="round"/></svg><svg fill="none" viewBox="0 0 22 22" id="social-favorite" xmlns="http://www.w3.org/2000/svg"><path d="M11.62 19.914c-.34.115-.9.115-1.24 0C7.48 18.968 1 15.024 1 8.339 1 5.388 3.49 3 6.56 3c1.82 0 3.43.84 4.44 2.14C12.01 3.84 13.63 3 15.44 3 18.51 3 21 5.388 21 8.339c0 6.685-6.48 10.63-9.38 11.575z" fill="#4067F0"/></svg><svg fill="none" viewBox="0 0 22 22" id="social-message" xmlns="http://www.w3.org/2000/svg"><path d="M15.582 1.833H6.415c-2.53 0-4.583 2.044-4.583 4.565V12.796c0 2.521 2.053 4.565 4.583 4.565H7.79c.248 0 .578.165.734.367l1.375 1.824c.605.807 1.595.807 2.2 0l1.375-1.824a.93.93 0 01.733-.367h1.375c2.53 0 4.583-2.044 4.583-4.565V6.398c0-2.52-2.053-4.565-4.583-4.565zM7.332 11a.914.914 0 01-.917-.917.92.92 0 01.917-.917.92.92 0 01.917.917.914.914 0 01-.917.917zm3.667 0a.914.914 0 01-.917-.917.92.92 0 01.917-.917.92.92 0 01.916.917A.914.914 0 0111 11zm3.666 0a.913.913 0 01-.916-.917.92.92 0 01.916-.917.92.92 0 01.917.917.913.913 0 01-.917.917z" fill="#4067F0"/></svg><svg fill="none" viewBox="0 0 22 22" id="social-notification" xmlns="http://www.w3.org/2000/svg"><path d="M17.73 13.282l-.917-1.521c-.192-.34-.366-.981-.366-1.357v-2.32a5.417 5.417 0 00-3.09-4.885 2.682 2.682 0 00-2.364-1.366c-1 0-1.898.54-2.375 1.393-1.787.89-3.025 2.732-3.025 4.859v2.319c0 .376-.174 1.017-.366 1.347L4.3 13.282c-.367.614-.45 1.293-.22 1.916.22.614.742 1.09 1.42 1.32 1.78.605 3.65.898 5.52.898 1.87 0 3.74-.293 5.517-.889a2.199 2.199 0 001.375-1.329 2.178 2.178 0 00-.183-1.916zM13.593 18.342A2.763 2.763 0 0111 20.166c-.724 0-1.44-.293-1.943-.816a2.531 2.531 0 01-.642-1.017c.12.018.238.027.367.046.21.027.43.055.65.073.523.046 1.055.073 1.586.073.523 0 1.045-.027 1.559-.073.192-.018.385-.027.568-.055.147-.018.293-.037.45-.055z" fill="#4067F0"/></svg><svg fill="none" viewBox="0 0 16 16" id="star" xmlns="http://www.w3.org/2000/svg"><path d="M7.276 1.26a.8.8 0 011.448 0l1.567 3.337a.8.8 0 00.602.45l3.57.55a.8.8 0 01.45 1.349l-2.63 2.694a.8.8 0 00-.218.688l.614 3.763a.8.8 0 01-1.177.828l-3.115-1.722a.8.8 0 00-.774 0l-3.115 1.722a.8.8 0 01-1.177-.829l.614-3.762a.8.8 0 00-.217-.688L1.087 6.946a.8.8 0 01.45-1.35l3.57-.548a.8.8 0 00.602-.451l1.567-3.338z" fill="#4067F0"/></svg><svg fill="none" viewBox="0 0 30 30" id="user-success" xmlns="http://www.w3.org/2000/svg"><g clip-path="url(#cwclip0_314_713)"><g filter="url(#cwfilter0_d_314_713)"><path d="M27.536 13.705l-1.77-2.01c-.327-.382-.603-1.095-.603-1.604V7.927c0-1.349-1.14-2.456-2.53-2.456h-2.229c-.524 0-1.272-.267-1.665-.585l-2.071-1.718c-.905-.751-2.386-.751-3.291 0l-2.098 1.718c-.393.318-1.127.585-1.652.585H7.36c-1.39 0-2.53 1.107-2.53 2.456v2.164c0 .496-.263 1.209-.59 1.59l-1.77 2.024c-.76.891-.76 2.316 0 3.182l1.77 2.023c.327.37.59 1.095.59 1.591v2.176c0 1.35 1.14 2.457 2.53 2.457H9.64c.512 0 1.259.267 1.652.585l2.072 1.718c.904.75 2.386.75 3.29 0l2.072-1.718c.393-.318 1.128-.585 1.652-.585h2.229c1.39 0 2.53-1.108 2.53-2.457v-2.163c0-.51.276-1.222.603-1.604l1.77-2.01c.8-.866.8-2.304.026-3.195z" fill="#34CE69"/><path d="M27.536 13.705l-1.77-2.01c-.327-.382-.603-1.095-.603-1.604V7.927c0-1.349-1.14-2.456-2.53-2.456h-2.229c-.524 0-1.272-.267-1.665-.585l-2.071-1.718c-.905-.751-2.386-.751-3.291 0l-2.098 1.718c-.393.318-1.127.585-1.652.585H7.36c-1.39 0-2.53 1.107-2.53 2.456v2.164c0 .496-.263 1.209-.59 1.59l-1.77 2.024c-.76.891-.76 2.316 0 3.182l1.77 2.023c.327.37.59 1.095.59 1.591v2.176c0 1.35 1.14 2.457 2.53 2.457H9.64c.512 0 1.259.267 1.652.585l2.072 1.718c.904.75 2.386.75 3.29 0l2.072-1.718c.393-.318 1.128-.585 1.652-.585h2.229c1.39 0 2.53-1.108 2.53-2.457v-2.163c0-.51.276-1.222.603-1.604l1.77-2.01c.8-.866.8-2.304.026-3.195z" stroke="#F7F9FE" stroke-width="2.7"/></g><path d="M20.405 11.308l-6.014 6.94-3.239-3.675" stroke="#fff" stroke-width="2.545" stroke-linecap="round" stroke-linejoin="round"/></g><defs><clipPath id="cwclip0_314_713"><path fill="#fff" d="M0 0h30v30H0z"/></clipPath><filter id="cwfilter0_d_314_713" x="-34.15" y="-33.444" width="121.445" height="120.626" filterUnits="userSpaceOnUse" color-interpolation-filters="sRGB"><feFlood flood-opacity="0" result="BackgroundImageFix"/><feColorMatrix in="SourceAlpha" values="0 0 0 0 0 0 0 0 0 0 0 0 0 0 0 0 0 0 127 0" result="hardAlpha"/><feOffset dx="11.566" dy="11.566"/><feGaussianBlur stdDeviation="23.133"/><feColorMatrix values="0 0 0 0 0.15375 0 0 0 0 0.45225 0 0 0 0 0.9 0 0 0 0.15 0"/><feBlend in2="BackgroundImageFix" result="effect1_dropShadow_314_713"/><feBlend in="SourceGraphic" in2="effect1_dropShadow_314_713" result="shape"/></filter></defs></svg><svg fill="none" viewBox="0 0 25 31" id="user-undefined" xmlns="http://www.w3.org/2000/svg"><path fill-rule="evenodd" clip-rule="evenodd" d="M4.871 7.298A7.304 7.304 0 0112.17 0a7.304 7.304 0 017.298 7.298 7.28 7.28 0 01-7.037 7.282h-.108a1.236 1.236 0 00-.337 0c-4.026-.138-7.114-3.334-7.114-7.282zM3.027 18.667c4.317-2.858 14.011-2.858 18.298 0 1.936 1.29 2.996 3.042 3.011 4.932 0 1.905-1.075 3.656-3.011 4.962-2.151 1.444-6.33 2.166-9.157 2.166s-7.006-.722-9.157-2.166C1.075 27.271 0 25.52 0 23.63c0-1.89 1.075-3.656 3.027-4.962z" fill="url(#cxpaint0_radial_869_19671)"/><defs><radialGradient id="cxpaint0_radial_869_19671" cx="0" cy="0" r="1" gradientUnits="userSpaceOnUse" gradientTransform="rotate(54.647 1.035 -1.341) scale(43.1966 53.5616)"><stop stop-color="#fff"/><stop offset=".569" stop-color="#E2E6F4"/><stop offset="1" stop-color="#fff"/></radialGradient></defs></svg></svg>